<?xml version="1.0" standalone="no"?>
<!DOCTYPE svg PUBLIC "-//W3C//DTD SVG 20010904//EN"
 "http://www.w3.org/TR/2001/REC-SVG-20010904/DTD/svg10.dtd">
<svg version="1.0" xmlns="http://www.w3.org/2000/svg"
 width="512.000000pt" height="512.000000pt" viewBox="0 0 512.000000 512.000000"
 preserveAspectRatio="xMidYMid meet">

<g transform="translate(0.000000,512.000000) scale(0.100000,-0.100000)"
fill="#000000" stroke="none">
<path d="M2031 4999 c-711 -54 -1354 -518 -1633 -1177 -279 -659 -178 -1408
266 -1977 62 -79 214 -233 301 -305 591 -485 1416 -576 2114 -234 73 36 134
64 136 62 19 -22 287 -353 492 -608 459 -571 450 -560 527 -600 61 -31 77 -35
150 -35 72 0 89 4 146 32 36 18 106 69 157 113 189 166 233 302 153 466 -27
55 -85 115 -488 510 -251 246 -493 482 -537 525 l-79 78 24 33 c111 148 224
362 284 534 199 578 116 1215 -222 1720 -336 501 -873 815 -1476 864 -141 11
-162 11 -315 -1z m442 -374 c313 -57 597 -202 829 -423 241 -231 396 -511 470
-854 32 -149 32 -457 0 -604 -138 -640 -626 -1129 -1259 -1264 -125 -27 -382
-37 -508 -21 -578 76 -1072 459 -1290 1002 -51 127 -90 276 -106 413 -15 127
-6 350 20 478 136 671 676 1187 1341 1284 119 17 380 11 503 -11z"/>
</g>
</svg>
